<svg xmlns="http://www.w3.org/2000/svg" version="1.1" xmlns:xlink="http://www.w3.org/1999/xlink" width="512px" height="512px"><svg xmlns="http://www.w3.org/2000/svg" version="1.1" xmlns:xlink="http://www.w3.org/1999/xlink" width="512px" height="512px"><svg xmlns="http://www.w3.org/2000/svg" version="1.1" xmlns:xlink="http://www.w3.org/1999/xlink" width="512px" height="512px"><svg width="512px" height="512px" version="1.1" xmlns="http://www.w3.org/2000/svg" xmlns:xlink="http://www.w3.org/1999/xlink" xml:space="preserve" xmlns:serif="http://www.serif.com/" style="fill-rule:evenodd;clip-rule:evenodd;stroke-linejoin:round;stroke-miterlimit:2;"><g transform="matrix(1,0,0,1,-244,-203.291355)"><g><g transform="matrix(2.41977,0,0,3.054881,-959.822147,-1705.356024)"><path d="M709,648L709,769C709,782 696,792 679,792L527,792C511,792 497,782 497,769L497,648C497,635 511,625 527,625L679,625C696,625 709,635 709,648Z" style="fill:rgb(7,17,40);"></path></g><g transform="matrix(1.833024,0,0,1.833024,-596.126317,-472.567861)"><path d="M698,604L659,604L647,573C617,595 585,596 550,571L536,604L497,604L577,412L619,412L698,604ZM598,458C535,489 574,582 641,557L598,458Z" style="fill:rgb(29,242,221);"></path></g></g></g></svg><style>@media (prefers-color-scheme: light) { :root { filter: none; } }
@media (prefers-color-scheme: dark) { :root { filter: none; } }
</style></svg></svg><style>@media (prefers-color-scheme: light) { :root { filter: none; } }
@media (prefers-color-scheme: dark) { :root { filter: none; } }
</style></svg>